<svg width="15" height="14" viewBox="0 0 15 14" fill="none" xmlns="http://www.w3.org/2000/svg">
    <path
        d="M8.59858 7.206L6.39999 7.6L6.76642 5.38195L10.9657 1.21582C11.0338 1.14743 11.1149 1.09315 11.2042 1.05611C11.2935 1.01907 11.3893 1 11.4861 1C11.5828 1 11.6786 1.01907 11.7679 1.05611C11.8572 1.09315 11.9383 1.14743 12.0064 1.21582L12.7832 1.98922C12.8519 2.05705 12.9064 2.13774 12.9436 2.22665C12.9808 2.31556 13 2.41093 13 2.50725C13 2.60357 12.9808 2.69893 12.9436 2.78784C12.9064 2.87675 12.8519 2.95745 12.7832 3.02528L8.59858 7.206Z"
        stroke="#7A7A7A" stroke-linecap="round" stroke-linejoin="round" />
    <path
        d="M11.9 8.5565V11.1391C11.9 11.3674 11.8093 11.5864 11.6479 11.7478C11.4864 11.9093 11.2674 12 11.0391 12H2.86087C2.63255 12 2.41359 11.9093 2.25214 11.7478C2.0907 11.5864 2 11.3674 2 11.1391V2.96085C2 2.73253 2.0907 2.51356 2.25214 2.35212C2.41359 2.19067 2.63255 2.09998 2.86087 2.09998H5.44348"
        stroke="#7A7A7A" stroke-linecap="round" stroke-linejoin="round" />
</svg>
