<svg width="16" height="16" viewBox="0 0 16 16" fill="none" xmlns="http://www.w3.org/2000/svg">
    <path
        d="M1 15L0.116748 14.8272C0.0588553 15.1231 0.152964 15.4283 0.367425 15.6402C0.581887 15.8521 0.88821 15.9426 1.18338 15.8811L1 15ZM1.79092 10.9577L0.907664 10.7849L1.79092 10.9577ZM2.08479 10.3917L1.43801 9.76586L2.08479 10.3917ZM5.4672 13.8804L6.11398 14.5063L5.4672 13.8804ZM4.91821 14.1845L4.73483 13.3034L4.91821 14.1845ZM14.2378 3.24237L14.8841 2.61599L14.2378 3.24237ZM14.2385 4.8157L13.5917 4.18986L14.2385 4.8157ZM12.3798 1.32535L11.7335 1.95174L12.3798 1.32535ZM10.857 1.32601L11.5038 1.95186L10.857 1.32601ZM9.61536 14.1C9.11831 14.1 8.71536 14.5029 8.71536 15C8.71536 15.4971 9.11831 15.9 9.61536 15.9V14.1ZM15 15.9C15.4971 15.9 15.9 15.4971 15.9 15C15.9 14.5029 15.4971 14.1 15 14.1V15.9ZM11.7335 1.95174L13.5916 3.86875L14.8841 2.61599L13.026 0.698971L11.7335 1.95174ZM13.5917 4.18986L4.82042 13.2546L6.11398 14.5063L14.8853 5.44154L13.5917 4.18986ZM4.73483 13.3034L0.81662 14.1189L1.18338 15.8811L5.10159 15.0657L4.73483 13.3034ZM1.88325 15.1728L2.67417 11.1305L0.907664 10.7849L0.116748 14.8272L1.88325 15.1728ZM2.73157 11.0175L11.5038 1.95186L10.2102 0.700174L1.43801 9.76586L2.73157 11.0175ZM2.67417 11.1305C2.68325 11.0841 2.70469 11.0453 2.73157 11.0175L1.43801 9.76586C1.16548 10.0475 0.982486 10.4025 0.907664 10.7849L2.67417 11.1305ZM4.82042 13.2546C4.79378 13.2821 4.76343 13.2975 4.73483 13.3034L5.10159 15.0657C5.489 14.985 5.84062 14.7888 6.11398 14.5063L4.82042 13.2546ZM13.5916 3.86875C13.6743 3.95413 13.6744 4.10437 13.5917 4.18986L14.8853 5.44154C15.6436 4.65781 15.6431 3.3991 14.8841 2.61599L13.5916 3.86875ZM13.026 0.698971C12.2515 -0.100146 10.9841 -0.0995688 10.2102 0.700174L11.5038 1.95186C11.5408 1.91362 11.5814 1.90002 11.6186 1.9C11.6559 1.89998 11.6965 1.91355 11.7335 1.95174L13.026 0.698971ZM9.61536 15.9H15V14.1H9.61536V15.9Z"
        fill="#5C5C5C" />
</svg>
