<svg width="14" height="15" viewBox="0 0 14 15" fill="none" xmlns="http://www.w3.org/2000/svg">
    <path
        d="M9.64 3.73C9.9051 3.92882 10.2812 3.8751 10.48 3.61C10.6788 3.3449 10.6251 2.96882 10.36 2.77L9.64 3.73ZM7 1L7.36 0.52C7.14667 0.36 6.85334 0.36 6.64 0.52L7 1ZM3.64 2.77C3.3749 2.96882 3.32118 3.3449 3.52 3.61C3.71882 3.8751 4.0949 3.92882 4.36 3.73L3.64 2.77ZM6.4 10C6.4 10.3314 6.66863 10.6 7 10.6C7.33137 10.6 7.6 10.3314 7.6 10L6.4 10ZM10.36 2.77L7.36 0.52L6.64 1.48L9.64 3.73L10.36 2.77ZM6.64 0.52L3.64 2.77L4.36 3.73L7.36 1.48L6.64 0.52ZM6.4 1L6.4 10L7.6 10L7.6 1L6.4 1Z"
        fill="#A0A0A0" />
    <path d="M2.5 6H1V12C1 13.1046 1.89543 14 3 14H11C12.1046 14 13 13.1046 13 12V6H11.5"
        stroke="#A0A0A0" stroke-width="1.2" stroke-linecap="round" stroke-linejoin="round" />
</svg>
