<svg width="25" height="24" viewBox="0 0 25 24" fill="none" xmlns="http://www.w3.org/2000/svg">
    <path
        d="M15.3185 21.0881V3.91211C15.3185 3.35982 14.8708 2.91211 14.3185 2.91211H10.2603C9.708 2.91211 9.26028 3.35982 9.26028 3.91211V21.0881M15.3185 21.0881L15.3169 10.7683C15.3168 10.2159 15.7646 9.76811 16.3169 9.76811H20.375C20.9273 9.76811 21.375 10.2158 21.375 10.7681V20.0881C21.375 20.6404 20.9273 21.0881 20.375 21.0881H15.3185ZM15.3185 21.0881H9.26028M9.26028 21.0881V16.0881C9.26028 15.5358 8.81257 15.0881 8.26028 15.0881H4.375C3.82271 15.0881 3.375 15.5358 3.375 16.0881V20.0881C3.375 20.6404 3.82271 21.0881 4.375 21.0881H9.26028Z"
        stroke="#B5B5B5" stroke-width="1.6" stroke-linecap="round" stroke-linejoin="round" />
</svg>
